<svg width="34" height="13" viewBox="0 0 34 13" fill="none" xmlns="http://www.w3.org/2000/svg">
<path d="M4.44092 0C5.08285 0 5.69157 0.118978 6.26709 0.356934C6.84261 0.589355 7.35173 0.95459 7.79443 1.45264C8.24268 1.94515 8.59408 2.57878 8.84863 3.35352C9.10319 4.12272 9.23047 5.04964 9.23047 6.13428V6.15088C9.23047 7.49561 9.03678 8.64665 8.64941 9.604C8.26204 10.5614 7.70589 11.2974 6.98096 11.812C6.26156 12.3211 5.40104 12.5757 4.39941 12.5757C3.66341 12.5757 2.99935 12.4429 2.40723 12.1772C1.82064 11.9061 1.33366 11.5353 0.946289 11.0649C0.564453 10.589 0.307129 10.0467 0.174316 9.43799L0.157715 9.34668H2.25781L2.29102 9.42969C2.39616 9.70638 2.54557 9.94987 2.73926 10.1602C2.93848 10.3704 3.17643 10.5337 3.45312 10.6499C3.73535 10.7606 4.05078 10.8159 4.39941 10.8159C5.03027 10.8159 5.54492 10.6305 5.94336 10.2598C6.34733 9.88346 6.64893 9.38265 6.84814 8.75732C7.0529 8.12646 7.16911 7.4292 7.19678 6.66553C7.20231 6.58252 7.20508 6.50228 7.20508 6.4248C7.20508 6.3418 7.20508 6.26156 7.20508 6.18408L6.83154 4.18359C6.83154 3.72982 6.7264 3.31755 6.51611 2.94678C6.30583 2.57601 6.02083 2.28271 5.66113 2.06689C5.30697 1.85107 4.90576 1.74316 4.45752 1.74316C4.02588 1.74316 3.63021 1.84831 3.27051 2.05859C2.91081 2.26888 2.62305 2.55664 2.40723 2.92188C2.19141 3.28158 2.0835 3.68555 2.0835 4.13379V4.15039C2.0835 4.61523 2.18587 5.02751 2.39062 5.38721C2.59538 5.74137 2.87484 6.02083 3.229 6.22559C3.58317 6.43034 3.98714 6.53271 4.44092 6.53271C4.89469 6.53271 5.30143 6.43311 5.66113 6.23389C6.02083 6.03467 6.30583 5.75798 6.51611 5.40381C6.7264 5.04964 6.83154 4.64844 6.83154 4.2002V4.18359H7.32959V6.3916H7.03906C6.89518 6.70703 6.68213 7.00033 6.3999 7.27148C6.11768 7.54264 5.76904 7.76123 5.354 7.92725C4.9445 8.09326 4.46305 8.17627 3.90967 8.17627C3.146 8.17627 2.47087 8.00472 1.88428 7.66162C1.29769 7.31852 0.835612 6.84814 0.498047 6.25049C0.166016 5.65283 0 4.9777 0 4.2251V4.2085C0 3.39502 0.188151 2.67285 0.564453 2.04199C0.946289 1.4056 1.47201 0.907552 2.1416 0.547852C2.81673 0.182617 3.58317 0 4.44092 0ZM12.999 10.6665C12.6227 10.6665 12.3073 10.542 12.0527 10.293C11.8037 10.0384 11.6792 9.72852 11.6792 9.36328C11.6792 8.99251 11.8037 8.68262 12.0527 8.43359C12.3073 8.17904 12.6227 8.05176 12.999 8.05176C13.3809 8.05176 13.6963 8.17904 13.9453 8.43359C14.1943 8.68262 14.3188 8.99251 14.3188 9.36328C14.3188 9.72852 14.1943 10.0384 13.9453 10.293C13.6963 10.542 13.3809 10.6665 12.999 10.6665ZM12.999 4.50732C12.6227 4.50732 12.3073 4.38281 12.0527 4.13379C11.8037 3.87923 11.6792 3.56934 11.6792 3.2041C11.6792 2.83333 11.8037 2.52344 12.0527 2.27441C12.3073 2.01986 12.6227 1.89258 12.999 1.89258C13.3809 1.89258 13.6963 2.01986 13.9453 2.27441C14.1943 2.52344 14.3188 2.83333 14.3188 3.2041C14.3188 3.56934 14.1943 3.87923 13.9453 4.13379C13.6963 4.38281 13.3809 4.50732 12.999 4.50732ZM22.5781 12.2769V9.97754H16.7178V8.22607C17.0332 7.68929 17.3486 7.14974 17.6641 6.60742C17.985 6.0651 18.3088 5.52555 18.6353 4.98877C18.9673 4.44645 19.2965 3.91243 19.623 3.38672C19.9551 2.85547 20.2843 2.33252 20.6108 1.81787C20.9429 1.29769 21.2749 0.791341 21.6069 0.298828H24.6201V8.20947H26.2388V9.97754H24.6201V12.2769H22.5781ZM18.71 8.25928H22.6113V2.00879H22.4868C22.2433 2.38509 21.9915 2.77246 21.7314 3.1709C21.4769 3.56934 21.2196 3.97607 20.9595 4.39111C20.6994 4.80615 20.4421 5.22396 20.1875 5.64453C19.9329 6.05957 19.6812 6.47738 19.4321 6.89795C19.1831 7.31299 18.9424 7.72526 18.71 8.13477V8.25928ZM31.1943 12.2769V2.40723H31.0449L28.0649 4.50732V2.49854L31.1943 0.298828H33.3276V12.2769H31.1943Z" fill="white"/>
</svg>
